<svg width="17" height="17" viewBox="0 0 17 17" fill="none" xmlns="http://www.w3.org/2000/svg">
    <path d="M8.64355 8.72415L5.26148 12.1062C5.16918 12.1985 5.05316 12.2457 4.91341 12.2479C4.77368 12.25 4.65552 12.2028 4.55895 12.1062C4.46236 12.0096 4.41406 11.8925 4.41406 11.7549C4.41406 11.6173 4.46236 11.5002 4.55895 11.4037L7.941 8.0216L4.55895 4.63953C4.46663 4.54723 4.41941 4.43121 4.41728 4.29146C4.41513 4.15173 4.46236 4.03358 4.55895 3.937C4.65552 3.84041 4.77261 3.79211 4.91021 3.79211C5.04781 3.79211 5.1649 3.84041 5.26148 3.937L8.64355 7.31905L12.0256 3.937C12.1179 3.84469 12.2339 3.79746 12.3737 3.79533C12.5134 3.79319 12.6316 3.84041 12.7281 3.937C12.8247 4.03358 12.873 4.15066 12.873 4.28826C12.873 4.42586 12.8247 4.54295 12.7281 4.63953L9.3461 8.0216L12.7281 11.4037C12.8205 11.496 12.8677 11.612 12.8698 11.7517C12.872 11.8915 12.8247 12.0096 12.7281 12.1062C12.6316 12.2028 12.5145 12.2511 12.3769 12.2511C12.2393 12.2511 12.1222 12.2028 12.0256 12.1062L8.64355 8.72415Z" fill="#383838"/>
</svg>
